<svg xmlns="http://www.w3.org/2000/svg" viewBox="0 0 800 450" width="800" height="450" preserveAspectRatio="xMidYMid slice">
<rect x="0" y="0" width="800" height="450" fill="#ffffff"/>
<polygon points="659.2,259.3 655.2,273.6 647.4,287.3 638.8,300.4 631.7,313.5 628.4,327.8 623.3,342.3 616.5,357.0 607.1,371.4 604.3,391.2 585.8,402.8 567.1,414.6 543.6,422.5 517.5,426.6 491.7,429.7 466.8,433.2 441.8,435.5 416.5,435.2 391.7,436.0 366.9,434.6 342.4,432.5 319.1,427.3 298.2,418.6 280.8,406.8 265.5,394.8 249.8,385.0 232.3,377.1 211.9,370.8 188.7,365.0 172.0,354.7 146.3,347.2 131.6,334.5 117.5,321.2 112.0,305.8 105.9,290.6 106.2,274.8 100.7,259.3 99.7,243.5 99.2,227.4 98.1,210.6 104.6,194.6 118.3,180.3 140.6,169.5 161.6,159.4 179.8,149.1 206.1,144.3 226.3,137.2 246.6,130.9 264.0,122.3 282.1,113.6 301.0,104.8 321.9,98.0 344.7,94.1 367.8,90.2 391.7,93.4 415.4,91.4 439.4,91.6 463.0,94.3 490.0,91.8 517.7,91.7 544.3,95.5 569.8,101.7 591.2,111.9 607.9,125.3 620.3,140.4 626.3,157.5 633.7,172.7 640.5,187.4 645.9,202.0 650.8,216.3 659.0,230.1 660.1,244.8 659.9,259.3" fill="none" stroke="#0a0a0a" stroke-width="0.70" opacity="0.30"/><polygon points="638.8,259.3 639.7,272.8 632.4,285.7 622.4,297.7 603.4,307.1 591.3,317.1 578.4,326.2 568.2,336.0 560.9,347.4 552.1,358.8 547.0,374.1 534.4,385.7 515.9,392.7 498.6,401.5 479.3,408.5 458.0,412.8 435.8,414.3 413.7,415.5 391.7,418.8 368.9,420.6 345.4,422.1 322.3,420.0 300.2,415.1 283.2,403.6 265.2,395.1 256.8,378.8 244.9,367.8 235.1,356.4 224.0,346.6 210.0,338.2 195.7,329.5 181.8,320.0 172.3,308.8 164.6,297.1 156.7,285.0 159.0,272.0 157.8,259.3 157.4,246.6 150.5,233.0 151.9,219.5 147.2,204.2 149.8,189.4 155.9,174.9 168.5,162.5 186.7,152.7 206.3,144.4 232.7,141.9 253.0,136.6 274.2,133.2 293.7,129.1 310.9,121.7 331.5,120.2 350.7,115.4 371.2,114.1 391.7,116.1 411.4,119.5 430.4,123.0 448.9,127.0 469.6,126.7 488.8,130.3 509.3,133.1 534.2,133.1 557.0,137.2 581.7,141.5 598.5,151.7 609.5,164.8 618.9,178.0 625.1,191.9 630.2,205.5 632.3,219.4 638.9,232.3 644.4,245.6 644.1,259.3" fill="none" stroke="#0a0a0a" stroke-width="0.80" opacity="0.39"/><polygon points="616.7,259.3 616.9,271.6 618.3,284.1 611.3,295.8 597.4,305.8 587.2,315.9 567.2,322.2 551.5,328.7 534.7,333.7 523.2,340.9 512.8,348.8 502.1,357.1 490.4,365.4 477.4,373.4 462.0,379.1 444.9,382.5 427.5,385.3 409.0,382.2 391.7,386.6 373.3,389.4 353.8,392.7 333.9,393.1 313.3,392.9 292.5,391.2 274.2,385.5 259.5,376.4 248.0,365.5 238.3,354.5 234.5,341.1 227.0,330.9 220.4,320.6 207.1,312.7 200.1,302.6 197.2,291.6 195.2,280.8 194.7,270.0 198.2,259.3 202.9,249.1 207.7,239.2 209.6,229.1 207.4,217.8 208.8,206.5 207.4,193.4 205.9,178.7 217.5,168.7 228.6,158.2 245.1,151.0 262.3,144.8 281.3,140.8 299.8,137.1 318.3,134.4 336.2,131.0 354.9,130.0 372.8,125.6 391.7,128.5 409.6,132.2 427.4,133.9 442.0,142.8 456.1,149.6 469.4,155.9 483.7,160.5 500.1,163.3 518.1,165.9 536.4,169.6 556.3,173.7 571.4,181.3 579.5,192.1 591.6,201.5 597.9,212.8 601.9,224.4 606.8,235.8 611.8,247.4 615.4,259.3" fill="none" stroke="#0a0a0a" stroke-width="0.90" opacity="0.48"/><polygon points="563.4,259.3 569.6,269.0 577.0,279.6 577.7,290.2 576.5,301.0 570.3,311.0 559.5,319.4 543.3,325.2 531.7,332.2 512.5,334.2 502.2,341.0 488.3,344.9 473.0,346.6 461.7,352.5 448.3,355.8 434.6,358.7 420.2,359.6 405.7,358.9 391.7,357.0 378.2,355.1 363.7,357.7 349.6,356.7 334.3,357.0 317.3,358.3 300.2,357.6 283.1,355.5 267.6,351.0 255.6,343.7 246.5,334.9 239.6,325.3 233.2,316.1 227.8,306.7 223.7,297.2 221.3,287.6 217.5,278.4 216.7,268.8 216.2,259.3 226.5,250.4 230.8,241.8 241.7,234.4 248.8,227.1 254.4,219.6 257.3,211.2 259.0,201.8 260.4,191.1 268.3,182.8 275.0,173.2 288.3,167.8 301.6,162.6 313.9,156.0 329.1,152.7 344.7,150.6 359.6,146.6 375.3,143.6 391.7,141.3 408.5,140.0 425.1,141.9 439.5,148.8 453.2,154.5 464.5,162.5 472.6,172.4 483.3,178.2 491.9,185.3 502.3,190.7 513.7,195.9 525.4,201.3 537.3,207.2 545.1,215.0 548.1,224.0 557.4,231.8 559.5,241.0 560.4,250.2 565.7,259.3" fill="none" stroke="#0a0a0a" stroke-width="1.00" opacity="0.57"/><polygon points="517.2,259.3 514.9,266.0 521.8,273.6 526.0,281.7 526.4,289.7 526.7,298.4 525.6,307.3 521.1,315.5 510.2,321.0 499.5,326.2 487.3,330.0 475.9,333.9 464.6,337.6 452.9,340.7 440.5,342.5 429.4,346.5 416.0,344.8 403.8,344.9 391.7,342.2 380.4,339.6 370.4,334.3 360.5,331.5 350.7,329.1 340.0,328.0 328.5,327.1 314.2,327.9 299.3,327.6 290.7,322.0 280.4,317.2 272.6,311.0 263.9,305.1 259.1,297.7 253.7,290.5 248.2,283.2 242.6,275.6 237.7,267.7 238.4,259.3 238.0,251.0 243.8,243.2 255.0,236.6 265.0,230.7 274.2,225.4 283.6,220.6 292.2,216.2 296.4,209.8 302.6,204.1 308.0,197.5 315.4,191.8 324.6,187.4 333.1,181.5 345.2,180.2 355.9,176.5 367.6,174.6 379.4,172.3 391.7,168.2 404.7,166.9 418.8,164.0 432.8,164.3 446.2,166.5 457.8,171.5 465.9,179.7 473.0,187.3 480.0,194.1 485.6,201.1 491.5,207.4 498.2,213.1 506.5,218.2 513.6,224.1 515.4,231.4 517.8,238.4 517.9,245.5 518.5,252.5 518.3,259.3" fill="none" stroke="#0a0a0a" stroke-width="1.10" opacity="0.66"/><polygon points="486.2,259.3 482.2,264.3 478.6,268.8 476.8,273.5 476.3,278.4 477.9,284.3 477.2,289.9 480.3,297.8 473.9,302.1 472.2,309.3 463.5,312.4 454.4,314.9 447.1,318.9 438.7,321.9 430.1,324.8 421.0,327.3 412.0,331.0 402.0,332.6 391.7,332.0 381.8,329.5 373.1,324.8 365.7,319.5 358.9,315.2 353.6,310.0 345.9,308.5 339.7,305.3 332.0,303.4 323.2,301.8 315.6,298.9 308.8,295.3 303.9,290.8 298.1,286.4 297.8,280.5 293.8,275.6 290.3,270.4 281.1,265.3 278.0,259.3 274.0,253.0 272.5,246.3 274.4,239.9 279.3,234.0 287.6,229.2 298.1,225.9 307.8,222.9 313.8,218.8 321.4,215.8 330.5,214.1 336.6,210.6 342.2,206.2 350.0,203.9 358.5,202.8 367.1,202.4 375.4,202.2 383.6,202.3 391.7,201.9 400.0,200.2 409.4,196.9 419.7,194.5 431.0,192.4 441.4,193.3 451.6,195.0 460.1,198.7 466.5,204.1 471.9,209.6 477.1,214.9 479.5,221.2 484.0,226.3 487.2,231.7 494.6,236.1 494.8,242.2 496.3,247.9 491.5,253.9 487.0,259.3" fill="none" stroke="#0a0a0a" stroke-width="1.20" opacity="0.75"/><polygon points="469.2,259.3 463.8,263.3 457.7,266.6 453.4,269.6 446.8,271.8 444.8,274.7 442.3,277.5 440.7,280.6 439.4,284.2 437.1,287.5 434.9,291.2 429.1,292.5 426.5,296.7 420.5,297.6 415.3,299.6 409.8,301.2 404.7,305.3 398.5,307.8 391.7,309.6 384.4,310.7 377.2,310.2 370.6,308.1 365.4,304.2 360.6,300.7 356.1,297.6 353.0,293.6 349.0,290.8 347.4,286.8 343.9,284.2 338.8,282.3 335.7,279.4 334.4,275.9 333.9,272.4 333.6,269.0 334.0,265.6 331.4,262.6 328.4,259.3 325.2,255.7 319.7,251.5 318.5,247.2 315.7,242.2 316.7,237.7 320.7,233.9 326.5,231.1 332.4,228.5 338.6,226.4 344.4,224.4 350.0,222.4 356.1,221.1 361.2,218.9 366.9,217.1 373.8,217.9 380.4,219.8 386.2,220.6 391.7,222.7 396.6,224.6 401.4,225.2 406.5,224.9 412.3,224.2 419.4,222.5 426.8,221.6 434.3,221.6 439.9,223.7 446.3,225.5 449.1,229.5 452.2,233.1 456.5,236.1 460.8,239.4 464.8,242.8 467.9,246.7 471.0,250.7 468.7,255.2 469.7,259.3" fill="none" stroke="#0a0a0a" stroke-width="1.30" opacity="0.84"/><polygon points="436.9,259.3 436.7,261.8 435.3,264.1 432.5,266.1 427.8,267.5 423.6,268.6 419.6,269.3 416.4,270.1 413.5,270.7 412.1,272.0 411.6,274.1 408.9,274.6 406.5,275.3 403.8,275.5 401.4,275.8 398.8,275.8 396.7,276.9 394.1,276.8 391.7,279.3 388.3,283.1 384.4,285.1 380.5,285.2 376.4,285.4 373.2,283.9 370.2,282.4 368.4,280.0 366.5,277.9 365.1,275.8 364.1,273.7 362.4,272.1 359.4,270.9 358.9,268.8 360.5,266.4 360.6,264.5 363.2,262.5 365.5,260.8 367.2,259.3 367.4,258.0 365.6,256.5 364.2,254.8 360.7,252.4 359.2,249.9 359.8,247.9 359.8,245.5 362.0,243.9 364.2,242.3 365.8,240.2 369.0,239.3 371.6,237.8 374.2,236.1 377.5,235.2 380.6,233.6 384.2,233.0 388.3,235.6 391.7,235.8 394.5,239.2 396.6,242.0 398.4,243.7 400.0,245.1 402.3,245.3 405.1,244.9 408.0,244.9 411.2,244.9 415.3,244.7 415.9,246.7 418.0,247.9 420.7,249.0 421.3,250.8 425.5,251.7 427.1,253.5 431.6,255.0 435.5,257.0 437.0,259.3" fill="none" stroke="#0a0a0a" stroke-width="1.40" opacity="0.93"/><circle cx="391.7" cy="259.3" r="2.4" fill="#0a0a0a"/><line x1="379.7" y1="259.3" x2="403.7" y2="259.3" stroke="#0a0a0a" stroke-width="1"/><line x1="391.7" y1="247.3" x2="391.7" y2="271.3" stroke="#0a0a0a" stroke-width="1"/>
</svg>
