<svg xmlns="http://www.w3.org/2000/svg" viewBox="0 0 800 450" width="800" height="450" preserveAspectRatio="xMidYMid slice">
<rect x="0" y="0" width="800" height="450" fill="#ffffff"/>
<line x1="0" y1="6.0" x2="800" y2="6.0" stroke="#0a0a0a" stroke-width="0.6" opacity="0.15"/><line x1="0" y1="49.5" x2="800" y2="49.5" stroke="#0a0a0a" stroke-width="0.6" opacity="0.18"/><line x1="0" y1="93.0" x2="800" y2="93.0" stroke="#0a0a0a" stroke-width="0.6" opacity="0.21"/><line x1="0" y1="136.5" x2="800" y2="136.5" stroke="#0a0a0a" stroke-width="0.6" opacity="0.24"/><line x1="0" y1="180.0" x2="800" y2="180.0" stroke="#0a0a0a" stroke-width="0.6" opacity="0.27"/><polyline points="0.0,254.5 12.5,253.5 25.0,252.3 37.5,251.2 50.0,250.4 62.5,250.4 75.0,251.3 87.5,252.9 100.0,255.3 112.5,256.0 125.0,253.3 137.5,250.9 150.0,249.3 162.5,248.5 175.0,248.6 187.5,249.5 200.0,251.0 212.5,252.6 225.0,254.1 237.5,255.1 250.0,255.6 262.5,255.3 275.0,254.6 287.5,253.7 300.0,252.8 312.5,252.3 325.0,252.5 337.5,253.5 350.0,255.2 362.5,256.5 375.0,253.8 387.5,251.3 400.0,249.2 412.5,247.9 425.0,247.4 437.5,248.0 450.0,249.3 462.5,251.1 475.0,253.1 487.5,254.9 500.0,256.2 512.5,256.8 525.0,256.8 537.5,256.3 550.0,255.5 562.5,254.7 575.0,254.4 587.5,254.6 600.0,255.6 612.5,256.7 625.0,254.5 637.5,252.1 650.0,249.8 662.5,248.1 675.0,247.1 687.5,247.1 700.0,248.1 712.5,249.8 725.0,252.0 737.5,254.3 750.0,256.3 762.5,256.2 775.0,255.4 787.5,255.3 800.0,255.7" fill="none" stroke="#0a0a0a" stroke-width="0.70" opacity="0.35"/><polyline points="0.0,250.8 12.5,250.7 25.0,250.2 37.5,249.3 50.0,248.0 62.5,246.4 75.0,244.7 87.5,243.2 100.0,241.9 112.5,241.1 125.0,240.8 137.5,241.2 150.0,242.2 162.5,244.0 175.0,246.4 187.5,249.2 200.0,252.4 212.5,252.8 225.0,249.6 237.5,246.6 250.0,244.1 262.5,242.2 275.0,240.9 287.5,240.4 300.0,240.5 312.5,241.2 325.0,242.4 337.5,244.0 350.0,245.7 362.5,247.3 375.0,248.8 387.5,250.0 400.0,250.7 412.5,250.9 425.0,250.7 437.5,250.0 450.0,248.9 462.5,247.7 475.0,246.4 487.5,245.2 500.0,244.3 512.5,243.9 525.0,244.1 537.5,244.9 550.0,246.4 562.5,248.4 575.0,251.0 587.5,254.0 600.0,251.3 612.5,248.1 625.0,245.1 637.5,242.4 650.0,240.3 662.5,238.9 675.0,238.2 687.5,238.2 700.0,238.8 712.5,240.1 725.0,241.9 737.5,243.9 750.0,246.0 762.5,248.0 775.0,249.8 787.5,251.2 800.0,252.2" fill="none" stroke="#0a0a0a" stroke-width="0.84" opacity="0.42"/><polyline points="0.0,240.6 12.5,239.8 25.0,238.2 37.5,236.2 50.0,233.9 62.5,231.6 75.0,229.6 87.5,228.2 100.0,227.7 112.5,228.1 125.0,229.5 137.5,232.0 150.0,235.5 162.5,239.7 175.0,244.4 187.5,242.5 200.0,237.7 212.5,233.4 225.0,229.8 237.5,227.1 250.0,225.5 262.5,225.0 275.0,225.5 287.5,227.0 300.0,229.1 312.5,231.7 325.0,234.4 337.5,237.0 350.0,239.1 362.5,240.7 375.0,241.5 387.5,241.5 400.0,240.8 412.5,239.5 425.0,237.8 437.5,236.0 450.0,234.3 462.5,233.0 475.0,232.4 487.5,232.7 500.0,233.9 512.5,236.1 525.0,239.3 537.5,243.2 550.0,244.1 562.5,239.4 575.0,234.7 587.5,230.4 600.0,226.8 612.5,224.1 625.0,222.5 637.5,222.0 650.0,222.7 662.5,224.3 675.0,226.8 687.5,229.9 700.0,233.2 712.5,236.4 725.0,239.4 737.5,241.8 750.0,243.5 762.5,244.4 775.0,244.5 787.5,243.8 800.0,242.7" fill="none" stroke="#0a0a0a" stroke-width="0.99" opacity="0.49"/><polyline points="0.0,220.7 12.5,212.7 25.0,207.3 37.5,205.0 50.0,205.9 62.5,209.4 75.0,214.4 87.5,219.6 100.0,223.7 112.5,226.0 125.0,226.0 137.5,223.9 150.0,220.5 162.5,217.0 175.0,214.5 187.5,214.2 200.0,216.8 212.5,222.3 225.0,230.1 237.5,224.7 250.0,215.6 262.5,207.9 275.0,202.8 287.5,201.0 300.0,202.6 312.5,206.9 325.0,212.9 337.5,219.3 350.0,224.9 362.5,228.6 375.0,230.0 387.5,229.1 400.0,226.6 412.5,223.6 425.0,221.4 437.5,221.0 450.0,223.2 462.5,228.1 475.0,228.7 487.5,220.2 500.0,211.7 512.5,204.6 525.0,200.2 537.5,199.0 550.0,201.3 562.5,206.5 575.0,213.5 587.5,221.1 600.0,227.9 612.5,231.1 625.0,228.6 637.5,228.6 650.0,230.4 662.5,230.9 675.0,228.6 687.5,227.7 700.0,229.2 712.5,230.8 725.0,224.6 737.5,217.1 750.0,209.5 762.5,203.3 775.0,199.6 787.5,199.1 800.0,202.1" fill="none" stroke="#0a0a0a" stroke-width="1.13" opacity="0.57"/><polyline points="0.0,195.8 12.5,191.5 25.0,189.9 37.5,192.7 50.0,200.1 62.5,211.2 75.0,201.0 87.5,188.7 100.0,179.4 112.5,174.9 125.0,175.7 137.5,181.1 150.0,189.4 162.5,198.2 175.0,205.3 187.5,209.2 200.0,209.3 212.5,206.4 225.0,202.3 237.5,199.0 250.0,198.6 262.5,202.4 275.0,210.4 287.5,203.7 300.0,191.5 312.5,180.8 325.0,173.8 337.5,172.0 350.0,175.5 362.5,183.3 375.0,193.6 387.5,203.7 400.0,211.7 412.5,209.1 425.0,208.8 437.5,211.4 450.0,209.9 462.5,207.2 475.0,207.3 487.5,211.4 500.0,205.9 512.5,195.6 525.0,184.9 537.5,176.3 550.0,171.9 562.5,172.9 575.0,179.1 587.5,189.2 600.0,201.0 612.5,212.1 625.0,204.8 637.5,200.6 650.0,200.6 662.5,203.6 675.0,207.6 687.5,210.5 700.0,210.5 712.5,206.8 725.0,199.6 737.5,190.6 750.0,181.8 762.5,175.6 775.0,173.9 787.5,177.6 800.0,186.1" fill="none" stroke="#0a0a0a" stroke-width="1.28" opacity="0.64"/><polyline points="0.0,171.2 12.5,175.5 25.0,179.4 37.5,181.7 50.0,181.4 62.5,178.3 75.0,172.5 87.5,165.0 100.0,157.0 112.5,150.0 125.0,145.4 137.5,144.3 150.0,147.3 162.5,154.2 175.0,164.4 187.5,176.7 200.0,185.7 212.5,174.1 225.0,165.0 237.5,159.3 250.0,157.4 262.5,158.8 275.0,162.9 287.5,168.1 300.0,173.2 312.5,176.9 325.0,178.1 337.5,176.5 350.0,172.4 362.5,166.5 375.0,160.0 387.5,154.5 400.0,151.3 412.5,151.5 425.0,155.5 437.5,163.3 450.0,174.2 462.5,186.8 475.0,175.5 487.5,164.0 500.0,155.3 512.5,150.2 525.0,149.2 537.5,151.7 550.0,157.0 562.5,163.7 575.0,170.3 587.5,175.5 600.0,178.3 612.5,178.3 625.0,175.7 637.5,171.3 650.0,166.2 662.5,161.9 675.0,159.7 687.5,160.7 700.0,165.3 712.5,173.5 725.0,184.4 737.5,178.3 750.0,165.9 762.5,155.1 775.0,147.3 787.5,143.3 800.0,143.5" fill="none" stroke="#0a0a0a" stroke-width="1.42" opacity="0.71"/><polyline points="0.0,145.3 12.5,146.2 25.0,141.2 37.5,131.8 50.0,121.4 62.5,114.1 75.0,113.3 87.5,120.9 100.0,135.9 112.5,155.5 125.0,138.7 137.5,123.3 150.0,115.2 162.5,115.3 175.0,122.0 187.5,131.9 200.0,141.0 212.5,145.8 225.0,144.8 237.5,138.7 250.0,130.4 262.5,123.9 275.0,122.8 287.5,129.3 300.0,143.2 312.5,151.9 325.0,132.2 337.5,116.3 350.0,107.6 362.5,107.6 375.0,115.1 387.5,127.0 400.0,139.2 412.5,147.8 425.0,150.7 437.5,147.8 450.0,141.6 462.5,135.6 475.0,133.8 487.5,138.7 500.0,150.7 512.5,146.0 525.0,127.3 537.5,111.6 550.0,102.9 562.5,102.9 575.0,111.2 587.5,124.9 600.0,139.9 612.5,152.1 625.0,155.5 637.5,155.4 650.0,154.2 662.5,148.5 675.0,145.5 687.5,148.2 700.0,156.4 712.5,141.5 725.0,124.5 737.5,109.8 750.0,101.4 762.5,101.6 775.0,110.5 787.5,125.6 800.0,142.9" fill="none" stroke="#0a0a0a" stroke-width="1.57" opacity="0.78"/><polyline points="0.0,103.5 12.5,102.7 25.0,104.3 37.5,107.6 50.0,111.6 62.5,115.5 75.0,118.3 87.5,119.3 100.0,117.9 112.5,114.0 125.0,107.7 137.5,99.5 150.0,90.1 162.5,80.5 175.0,71.7 187.5,64.9 200.0,60.7 212.5,59.8 225.0,62.6 237.5,68.8 250.0,78.0 262.5,89.5 275.0,102.4 287.5,115.4 300.0,114.2 312.5,103.8 325.0,96.0 337.5,91.1 350.0,89.3 362.5,90.3 375.0,93.4 387.5,97.9 400.0,102.8 412.5,107.2 425.0,110.1 437.5,111.1 450.0,109.6 462.5,105.7 475.0,99.8 487.5,92.4 500.0,84.5 512.5,77.0 525.0,71.0 537.5,67.3 550.0,66.6 562.5,69.3 575.0,75.5 587.5,84.7 600.0,96.4 612.5,109.7 625.0,118.5 637.5,105.4 650.0,94.1 662.5,85.3 675.0,79.6 687.5,77.1 700.0,77.8 712.5,81.1 725.0,86.2 737.5,92.3 750.0,98.4 762.5,103.5 775.0,106.9 787.5,108.0 800.0,106.7" fill="none" stroke="#0a0a0a" stroke-width="1.71" opacity="0.86"/><polyline points="0.0,20.7 12.5,15.6 25.0,20.7 37.5,33.4 50.0,48.9 62.5,62.2 75.0,69.6 87.5,69.5 100.0,63.4 112.5,55.0 125.0,49.0 137.5,49.6 150.0,59.1 162.5,76.9 175.0,58.6 187.5,35.6 200.0,17.9 212.5,9.6 225.0,12.2 237.5,24.3 250.0,42.1 262.5,60.3 275.0,74.1 287.5,77.8 300.0,78.8 312.5,73.5 325.0,66.5 337.5,63.3 350.0,67.4 362.5,78.6 375.0,59.5 387.5,38.0 400.0,19.4 412.5,8.5 425.0,8.3 437.5,18.7 450.0,37.1 462.5,58.5 475.0,77.8 487.5,67.9 500.0,63.4 512.5,66.4 525.0,73.3 537.5,78.9 550.0,77.6 562.5,74.7 575.0,61.0 587.5,42.9 600.0,25.0 612.5,12.5 625.0,9.4 637.5,17.2 650.0,34.5 662.5,57.4 675.0,78.0 687.5,59.8 700.0,49.9 712.5,49.0 725.0,54.8 737.5,63.2 750.0,69.5 762.5,69.8 775.0,62.7 787.5,49.5 800.0,34.0" fill="none" stroke="#0a0a0a" stroke-width="1.86" opacity="0.93"/><polyline points="0.0,4.6 12.5,11.1 25.0,17.8 37.5,22.5 50.0,23.5 62.5,19.8 75.0,11.5 87.5,-0.3 100.0,-13.7 112.5,-26.2 125.0,-35.6 137.5,-39.7 150.0,-37.3 162.5,-28.2 175.0,-13.2 187.5,6.0 200.0,26.8 212.5,17.4 225.0,0.9 237.5,-10.4 250.0,-15.6 262.5,-15.0 275.0,-9.6 287.5,-1.6 300.0,6.9 312.5,13.6 325.0,16.7 337.5,15.3 350.0,9.5 362.5,0.2 375.0,-10.6 387.5,-20.5 400.0,-27.3 412.5,-29.0 425.0,-24.4 437.5,-13.5 450.0,3.0 462.5,23.0 475.0,19.7 487.5,-0.0 500.0,-15.9 512.5,-26.1 525.0,-29.8 537.5,-27.4 550.0,-20.0 562.5,-9.7 575.0,1.2 587.5,10.3 600.0,15.8 612.5,16.8 625.0,13.4 637.5,6.6 650.0,-1.9 662.5,-9.7 675.0,-14.5 687.5,-14.4 700.0,-8.5 712.5,3.5 725.0,20.4 737.5,23.5 750.0,2.8 762.5,-15.9 775.0,-30.2 787.5,-38.5 800.0,-40.0" fill="none" stroke="#0a0a0a" stroke-width="2.00" opacity="1.00"/><line x1="0" y1="261.0" x2="800" y2="261.0" stroke="#0a0a0a" stroke-width="1.4"/>
</svg>
