<svg xmlns="http://www.w3.org/2000/svg" viewBox="0 0 800 450" width="800" height="450" preserveAspectRatio="xMidYMid slice">
<rect x="0" y="0" width="800" height="450" fill="#ffffff"/>
<line x1="0" y1="6.0" x2="800" y2="6.0" stroke="#0a0a0a" stroke-width="0.6" opacity="0.15"/><line x1="0" y1="60.0" x2="800" y2="60.0" stroke="#0a0a0a" stroke-width="0.6" opacity="0.18"/><line x1="0" y1="114.0" x2="800" y2="114.0" stroke="#0a0a0a" stroke-width="0.6" opacity="0.21"/><line x1="0" y1="168.0" x2="800" y2="168.0" stroke="#0a0a0a" stroke-width="0.6" opacity="0.24"/><line x1="0" y1="222.0" x2="800" y2="222.0" stroke="#0a0a0a" stroke-width="0.6" opacity="0.27"/><polyline points="0.0,316.2 12.5,313.7 25.0,312.2 37.5,311.9 50.0,312.7 62.5,314.2 75.0,315.9 87.5,317.4 100.0,318.2 112.5,318.2 125.0,317.4 137.5,316.2 150.0,315.2 162.5,314.7 175.0,315.2 187.5,316.7 200.0,319.2 212.5,317.7 225.0,314.7 237.5,312.3 250.0,310.9 262.5,310.8 275.0,311.8 287.5,313.7 300.0,315.8 312.5,317.8 325.0,319.0 337.5,319.4 350.0,319.0 362.5,318.1 375.0,317.2 387.5,316.7 400.0,317.1 412.5,318.5 425.0,319.2 437.5,316.4 450.0,313.6 462.5,311.4 475.0,310.2 487.5,310.3 500.0,311.6 512.5,313.8 525.0,316.3 537.5,318.7 550.0,319.7 562.5,318.9 575.0,319.0 587.5,319.7 600.0,319.4 612.5,318.8 625.0,319.0 637.5,319.9 650.0,317.9 662.5,315.4 675.0,312.9 687.5,311.0 700.0,310.1 712.5,310.5 725.0,312.0 737.5,314.5 750.0,317.3 762.5,320.0 775.0,318.0 787.5,316.9 800.0,316.9" fill="none" stroke="#0a0a0a" stroke-width="0.70" opacity="0.35"/><polyline points="0.0,307.0 12.5,305.7 25.0,305.3 37.5,305.7 50.0,306.6 62.5,307.9 75.0,309.3 87.5,310.4 100.0,310.8 112.5,310.7 125.0,310.6 137.5,309.1 150.0,306.9 162.5,304.1 175.0,300.8 187.5,297.4 200.0,294.2 212.5,291.4 225.0,289.2 237.5,288.1 250.0,287.9 262.5,288.9 275.0,291.0 287.5,294.0 300.0,297.8 312.5,302.0 325.0,306.4 337.5,310.6 350.0,307.6 362.5,304.4 375.0,302.1 387.5,300.8 400.0,300.3 412.5,300.7 425.0,301.7 437.5,303.2 450.0,304.8 462.5,306.2 475.0,307.3 487.5,307.9 500.0,307.7 512.5,306.7 525.0,305.0 537.5,302.8 550.0,300.1 562.5,297.3 575.0,294.6 587.5,292.3 600.0,290.8 612.5,290.1 625.0,290.4 637.5,291.9 650.0,294.4 662.5,297.8 675.0,301.8 687.5,306.4 700.0,311.0 712.5,306.6 725.0,302.7 737.5,299.5 750.0,297.2 762.5,295.9 775.0,295.6 787.5,296.2 800.0,297.5" fill="none" stroke="#0a0a0a" stroke-width="0.96" opacity="0.48"/><polyline points="0.0,249.8 12.5,254.0 25.0,260.1 37.5,266.9 50.0,273.4 62.5,278.5 75.0,281.5 87.5,282.2 100.0,280.8 112.5,278.2 125.0,275.1 137.5,272.8 150.0,272.1 162.5,273.8 175.0,278.1 187.5,283.2 200.0,274.9 212.5,265.9 225.0,257.6 237.5,251.0 250.0,247.1 262.5,246.4 275.0,248.9 287.5,254.3 300.0,261.6 312.5,269.6 325.0,277.2 337.5,283.4 350.0,280.7 362.5,279.1 375.0,279.8 387.5,282.1 400.0,283.1 412.5,280.7 425.0,279.8 437.5,281.0 450.0,283.3 462.5,277.5 475.0,270.1 487.5,262.1 500.0,254.8 512.5,249.3 525.0,246.6 537.5,247.0 550.0,250.7 562.5,257.2 575.0,265.5 587.5,274.5 600.0,283.0 612.5,278.0 625.0,273.4 637.5,271.4 650.0,271.9 662.5,274.1 675.0,277.1 687.5,280.0 700.0,281.5 712.5,281.2 725.0,278.5 737.5,273.8 750.0,267.5 762.5,260.8 775.0,254.7 787.5,250.4 800.0,248.7" fill="none" stroke="#0a0a0a" stroke-width="1.22" opacity="0.61"/><polyline points="0.0,217.1 12.5,229.0 25.0,238.1 37.5,235.2 50.0,235.1 62.5,238.3 75.0,235.1 87.5,231.5 100.0,231.3 112.5,235.6 125.0,233.6 137.5,221.3 150.0,208.0 162.5,196.4 175.0,188.9 187.5,187.4 200.0,192.2 212.5,202.4 225.0,216.0 237.5,230.2 250.0,235.6 262.5,227.4 275.0,224.2 287.5,225.5 300.0,229.7 312.5,234.5 325.0,237.4 337.5,236.7 350.0,231.5 362.5,222.4 375.0,211.2 387.5,200.3 400.0,192.4 412.5,189.7 425.0,193.2 437.5,202.6 450.0,216.3 462.5,231.8 475.0,231.6 487.5,220.5 500.0,214.5 512.5,213.7 525.0,217.1 537.5,222.8 550.0,228.1 562.5,230.9 575.0,229.8 587.5,224.5 600.0,216.1 612.5,206.7 625.0,199.0 637.5,195.3 650.0,197.2 662.5,205.1 675.0,218.1 687.5,233.9 700.0,228.2 712.5,214.9 725.0,206.3 737.5,203.5 750.0,205.9 762.5,212.0 775.0,219.4 787.5,225.6 800.0,228.5" fill="none" stroke="#0a0a0a" stroke-width="1.48" opacity="0.74"/><polyline points="0.0,160.4 12.5,171.3 25.0,172.9 37.5,168.6 50.0,167.9 62.5,170.2 75.0,174.3 87.5,173.1 100.0,169.6 112.5,168.5 125.0,170.7 137.5,175.5 150.0,166.2 162.5,154.5 175.0,141.7 187.5,129.4 200.0,119.2 212.5,112.6 225.0,110.6 237.5,113.5 250.0,121.2 262.5,132.7 275.0,146.5 287.5,161.1 300.0,174.7 312.5,166.1 325.0,158.4 337.5,154.7 350.0,154.7 362.5,157.6 375.0,162.3 387.5,167.2 400.0,170.9 412.5,172.1 425.0,170.1 437.5,164.6 450.0,156.2 462.5,145.8 475.0,134.9 487.5,125.0 500.0,117.9 512.5,114.7 525.0,116.2 537.5,122.5 550.0,133.2 562.5,147.1 575.0,162.6 587.5,173.9 600.0,160.2 612.5,149.6 625.0,143.0 637.5,140.7 650.0,142.2 662.5,146.5 675.0,152.5 687.5,158.4 700.0,162.8 712.5,164.7 725.0,163.4 737.5,158.8 750.0,151.6 762.5,142.9 775.0,134.2 787.5,127.0 800.0,122.9" fill="none" stroke="#0a0a0a" stroke-width="1.74" opacity="0.87"/><polyline points="0.0,58.9 12.5,56.0 25.0,58.3 37.5,66.6 50.0,80.7 62.5,91.0 75.0,70.5 87.5,50.7 100.0,34.2 112.5,23.2 125.0,19.0 137.5,21.9 150.0,30.9 162.5,44.2 175.0,59.3 187.5,73.6 200.0,84.8 212.5,91.5 225.0,93.2 237.5,90.4 250.0,84.7 262.5,78.3 275.0,73.7 287.5,72.8 300.0,77.2 312.5,87.2 325.0,87.9 337.5,69.9 350.0,51.1 362.5,34.2 375.0,21.8 387.5,15.7 400.0,16.7 412.5,24.7 425.0,38.2 437.5,55.1 450.0,72.6 462.5,88.3 475.0,90.0 487.5,83.5 500.0,82.3 512.5,85.4 525.0,91.1 537.5,93.0 550.0,89.1 562.5,89.3 575.0,94.6 587.5,85.0 600.0,70.6 612.5,54.2 625.0,38.1 637.5,25.2 650.0,17.6 662.5,16.8 675.0,23.1 687.5,35.9 700.0,53.3 712.5,72.8 725.0,91.8 737.5,82.3 750.0,71.3 762.5,66.1 775.0,66.4 787.5,70.8 800.0,77.5" fill="none" stroke="#0a0a0a" stroke-width="2.00" opacity="1.00"/><line x1="0" y1="324.0" x2="800" y2="324.0" stroke="#0a0a0a" stroke-width="1.4"/>
</svg>
